%TF.GenerationSoftware,KiCad,Pcbnew,(5.1.6)-1*%
%TF.CreationDate,2020-11-21T10:09:12-08:00*%
%TF.ProjectId,SoftTakeover,536f6674-5461-46b6-956f-7665722e6b69,rev?*%
%TF.SameCoordinates,Original*%
%TF.FileFunction,Paste,Top*%
%TF.FilePolarity,Positive*%
%FSLAX46Y46*%
G04 Gerber Fmt 4.6, Leading zero omitted, Abs format (unit mm)*
G04 Created by KiCad (PCBNEW (5.1.6)-1) date 2020-11-21 10:09:12*
%MOMM*%
%LPD*%
G01*
G04 APERTURE LIST*
%ADD10R,0.300000X1.400000*%
G04 APERTURE END LIST*
%TO.C,C6*%
G36*
G01*
X140151500Y-112016250D02*
X140151500Y-111503750D01*
G75*
G02*
X140370250Y-111285000I218750J0D01*
G01*
X140807750Y-111285000D01*
G75*
G02*
X141026500Y-111503750I0J-218750D01*
G01*
X141026500Y-112016250D01*
G75*
G02*
X140807750Y-112235000I-218750J0D01*
G01*
X140370250Y-112235000D01*
G75*
G02*
X140151500Y-112016250I0J218750D01*
G01*
G37*
G36*
G01*
X138576500Y-112016250D02*
X138576500Y-111503750D01*
G75*
G02*
X138795250Y-111285000I218750J0D01*
G01*
X139232750Y-111285000D01*
G75*
G02*
X139451500Y-111503750I0J-218750D01*
G01*
X139451500Y-112016250D01*
G75*
G02*
X139232750Y-112235000I-218750J0D01*
G01*
X138795250Y-112235000D01*
G75*
G02*
X138576500Y-112016250I0J218750D01*
G01*
G37*
%TD*%
%TO.C,C2*%
G36*
G01*
X142550500Y-116583750D02*
X142550500Y-117096250D01*
G75*
G02*
X142331750Y-117315000I-218750J0D01*
G01*
X141894250Y-117315000D01*
G75*
G02*
X141675500Y-117096250I0J218750D01*
G01*
X141675500Y-116583750D01*
G75*
G02*
X141894250Y-116365000I218750J0D01*
G01*
X142331750Y-116365000D01*
G75*
G02*
X142550500Y-116583750I0J-218750D01*
G01*
G37*
G36*
G01*
X144125500Y-116583750D02*
X144125500Y-117096250D01*
G75*
G02*
X143906750Y-117315000I-218750J0D01*
G01*
X143469250Y-117315000D01*
G75*
G02*
X143250500Y-117096250I0J218750D01*
G01*
X143250500Y-116583750D01*
G75*
G02*
X143469250Y-116365000I218750J0D01*
G01*
X143906750Y-116365000D01*
G75*
G02*
X144125500Y-116583750I0J-218750D01*
G01*
G37*
%TD*%
%TO.C,C5*%
G36*
G01*
X140151500Y-113921250D02*
X140151500Y-113408750D01*
G75*
G02*
X140370250Y-113190000I218750J0D01*
G01*
X140807750Y-113190000D01*
G75*
G02*
X141026500Y-113408750I0J-218750D01*
G01*
X141026500Y-113921250D01*
G75*
G02*
X140807750Y-114140000I-218750J0D01*
G01*
X140370250Y-114140000D01*
G75*
G02*
X140151500Y-113921250I0J218750D01*
G01*
G37*
G36*
G01*
X138576500Y-113921250D02*
X138576500Y-113408750D01*
G75*
G02*
X138795250Y-113190000I218750J0D01*
G01*
X139232750Y-113190000D01*
G75*
G02*
X139451500Y-113408750I0J-218750D01*
G01*
X139451500Y-113921250D01*
G75*
G02*
X139232750Y-114140000I-218750J0D01*
G01*
X138795250Y-114140000D01*
G75*
G02*
X138576500Y-113921250I0J218750D01*
G01*
G37*
%TD*%
%TO.C,C4*%
G36*
G01*
X134241250Y-95890500D02*
X133728750Y-95890500D01*
G75*
G02*
X133510000Y-95671750I0J218750D01*
G01*
X133510000Y-95234250D01*
G75*
G02*
X133728750Y-95015500I218750J0D01*
G01*
X134241250Y-95015500D01*
G75*
G02*
X134460000Y-95234250I0J-218750D01*
G01*
X134460000Y-95671750D01*
G75*
G02*
X134241250Y-95890500I-218750J0D01*
G01*
G37*
G36*
G01*
X134241250Y-97465500D02*
X133728750Y-97465500D01*
G75*
G02*
X133510000Y-97246750I0J218750D01*
G01*
X133510000Y-96809250D01*
G75*
G02*
X133728750Y-96590500I218750J0D01*
G01*
X134241250Y-96590500D01*
G75*
G02*
X134460000Y-96809250I0J-218750D01*
G01*
X134460000Y-97246750D01*
G75*
G02*
X134241250Y-97465500I-218750J0D01*
G01*
G37*
%TD*%
%TO.C,C3*%
G36*
G01*
X132590250Y-107981000D02*
X132077750Y-107981000D01*
G75*
G02*
X131859000Y-107762250I0J218750D01*
G01*
X131859000Y-107324750D01*
G75*
G02*
X132077750Y-107106000I218750J0D01*
G01*
X132590250Y-107106000D01*
G75*
G02*
X132809000Y-107324750I0J-218750D01*
G01*
X132809000Y-107762250D01*
G75*
G02*
X132590250Y-107981000I-218750J0D01*
G01*
G37*
G36*
G01*
X132590250Y-109556000D02*
X132077750Y-109556000D01*
G75*
G02*
X131859000Y-109337250I0J218750D01*
G01*
X131859000Y-108899750D01*
G75*
G02*
X132077750Y-108681000I218750J0D01*
G01*
X132590250Y-108681000D01*
G75*
G02*
X132809000Y-108899750I0J-218750D01*
G01*
X132809000Y-109337250D01*
G75*
G02*
X132590250Y-109556000I-218750J0D01*
G01*
G37*
%TD*%
%TO.C,C1*%
G36*
G01*
X142550500Y-89024750D02*
X142550500Y-89537250D01*
G75*
G02*
X142331750Y-89756000I-218750J0D01*
G01*
X141894250Y-89756000D01*
G75*
G02*
X141675500Y-89537250I0J218750D01*
G01*
X141675500Y-89024750D01*
G75*
G02*
X141894250Y-88806000I218750J0D01*
G01*
X142331750Y-88806000D01*
G75*
G02*
X142550500Y-89024750I0J-218750D01*
G01*
G37*
G36*
G01*
X144125500Y-89024750D02*
X144125500Y-89537250D01*
G75*
G02*
X143906750Y-89756000I-218750J0D01*
G01*
X143469250Y-89756000D01*
G75*
G02*
X143250500Y-89537250I0J218750D01*
G01*
X143250500Y-89024750D01*
G75*
G02*
X143469250Y-88806000I218750J0D01*
G01*
X143906750Y-88806000D01*
G75*
G02*
X144125500Y-89024750I0J-218750D01*
G01*
G37*
%TD*%
%TO.C,U3*%
G36*
G01*
X137194000Y-109886000D02*
X137194000Y-110086000D01*
G75*
G02*
X137094000Y-110186000I-100000J0D01*
G01*
X135819000Y-110186000D01*
G75*
G02*
X135719000Y-110086000I0J100000D01*
G01*
X135719000Y-109886000D01*
G75*
G02*
X135819000Y-109786000I100000J0D01*
G01*
X137094000Y-109786000D01*
G75*
G02*
X137194000Y-109886000I0J-100000D01*
G01*
G37*
G36*
G01*
X137194000Y-109236000D02*
X137194000Y-109436000D01*
G75*
G02*
X137094000Y-109536000I-100000J0D01*
G01*
X135819000Y-109536000D01*
G75*
G02*
X135719000Y-109436000I0J100000D01*
G01*
X135719000Y-109236000D01*
G75*
G02*
X135819000Y-109136000I100000J0D01*
G01*
X137094000Y-109136000D01*
G75*
G02*
X137194000Y-109236000I0J-100000D01*
G01*
G37*
G36*
G01*
X137194000Y-108586000D02*
X137194000Y-108786000D01*
G75*
G02*
X137094000Y-108886000I-100000J0D01*
G01*
X135819000Y-108886000D01*
G75*
G02*
X135719000Y-108786000I0J100000D01*
G01*
X135719000Y-108586000D01*
G75*
G02*
X135819000Y-108486000I100000J0D01*
G01*
X137094000Y-108486000D01*
G75*
G02*
X137194000Y-108586000I0J-100000D01*
G01*
G37*
G36*
G01*
X137194000Y-107936000D02*
X137194000Y-108136000D01*
G75*
G02*
X137094000Y-108236000I-100000J0D01*
G01*
X135819000Y-108236000D01*
G75*
G02*
X135719000Y-108136000I0J100000D01*
G01*
X135719000Y-107936000D01*
G75*
G02*
X135819000Y-107836000I100000J0D01*
G01*
X137094000Y-107836000D01*
G75*
G02*
X137194000Y-107936000I0J-100000D01*
G01*
G37*
G36*
G01*
X137194000Y-107286000D02*
X137194000Y-107486000D01*
G75*
G02*
X137094000Y-107586000I-100000J0D01*
G01*
X135819000Y-107586000D01*
G75*
G02*
X135719000Y-107486000I0J100000D01*
G01*
X135719000Y-107286000D01*
G75*
G02*
X135819000Y-107186000I100000J0D01*
G01*
X137094000Y-107186000D01*
G75*
G02*
X137194000Y-107286000I0J-100000D01*
G01*
G37*
G36*
G01*
X137194000Y-106636000D02*
X137194000Y-106836000D01*
G75*
G02*
X137094000Y-106936000I-100000J0D01*
G01*
X135819000Y-106936000D01*
G75*
G02*
X135719000Y-106836000I0J100000D01*
G01*
X135719000Y-106636000D01*
G75*
G02*
X135819000Y-106536000I100000J0D01*
G01*
X137094000Y-106536000D01*
G75*
G02*
X137194000Y-106636000I0J-100000D01*
G01*
G37*
G36*
G01*
X137194000Y-105986000D02*
X137194000Y-106186000D01*
G75*
G02*
X137094000Y-106286000I-100000J0D01*
G01*
X135819000Y-106286000D01*
G75*
G02*
X135719000Y-106186000I0J100000D01*
G01*
X135719000Y-105986000D01*
G75*
G02*
X135819000Y-105886000I100000J0D01*
G01*
X137094000Y-105886000D01*
G75*
G02*
X137194000Y-105986000I0J-100000D01*
G01*
G37*
G36*
G01*
X137194000Y-105336000D02*
X137194000Y-105536000D01*
G75*
G02*
X137094000Y-105636000I-100000J0D01*
G01*
X135819000Y-105636000D01*
G75*
G02*
X135719000Y-105536000I0J100000D01*
G01*
X135719000Y-105336000D01*
G75*
G02*
X135819000Y-105236000I100000J0D01*
G01*
X137094000Y-105236000D01*
G75*
G02*
X137194000Y-105336000I0J-100000D01*
G01*
G37*
G36*
G01*
X137194000Y-104686000D02*
X137194000Y-104886000D01*
G75*
G02*
X137094000Y-104986000I-100000J0D01*
G01*
X135819000Y-104986000D01*
G75*
G02*
X135719000Y-104886000I0J100000D01*
G01*
X135719000Y-104686000D01*
G75*
G02*
X135819000Y-104586000I100000J0D01*
G01*
X137094000Y-104586000D01*
G75*
G02*
X137194000Y-104686000I0J-100000D01*
G01*
G37*
G36*
G01*
X137194000Y-104036000D02*
X137194000Y-104236000D01*
G75*
G02*
X137094000Y-104336000I-100000J0D01*
G01*
X135819000Y-104336000D01*
G75*
G02*
X135719000Y-104236000I0J100000D01*
G01*
X135719000Y-104036000D01*
G75*
G02*
X135819000Y-103936000I100000J0D01*
G01*
X137094000Y-103936000D01*
G75*
G02*
X137194000Y-104036000I0J-100000D01*
G01*
G37*
G36*
G01*
X142919000Y-104036000D02*
X142919000Y-104236000D01*
G75*
G02*
X142819000Y-104336000I-100000J0D01*
G01*
X141544000Y-104336000D01*
G75*
G02*
X141444000Y-104236000I0J100000D01*
G01*
X141444000Y-104036000D01*
G75*
G02*
X141544000Y-103936000I100000J0D01*
G01*
X142819000Y-103936000D01*
G75*
G02*
X142919000Y-104036000I0J-100000D01*
G01*
G37*
G36*
G01*
X142919000Y-104686000D02*
X142919000Y-104886000D01*
G75*
G02*
X142819000Y-104986000I-100000J0D01*
G01*
X141544000Y-104986000D01*
G75*
G02*
X141444000Y-104886000I0J100000D01*
G01*
X141444000Y-104686000D01*
G75*
G02*
X141544000Y-104586000I100000J0D01*
G01*
X142819000Y-104586000D01*
G75*
G02*
X142919000Y-104686000I0J-100000D01*
G01*
G37*
G36*
G01*
X142919000Y-105336000D02*
X142919000Y-105536000D01*
G75*
G02*
X142819000Y-105636000I-100000J0D01*
G01*
X141544000Y-105636000D01*
G75*
G02*
X141444000Y-105536000I0J100000D01*
G01*
X141444000Y-105336000D01*
G75*
G02*
X141544000Y-105236000I100000J0D01*
G01*
X142819000Y-105236000D01*
G75*
G02*
X142919000Y-105336000I0J-100000D01*
G01*
G37*
G36*
G01*
X142919000Y-105986000D02*
X142919000Y-106186000D01*
G75*
G02*
X142819000Y-106286000I-100000J0D01*
G01*
X141544000Y-106286000D01*
G75*
G02*
X141444000Y-106186000I0J100000D01*
G01*
X141444000Y-105986000D01*
G75*
G02*
X141544000Y-105886000I100000J0D01*
G01*
X142819000Y-105886000D01*
G75*
G02*
X142919000Y-105986000I0J-100000D01*
G01*
G37*
G36*
G01*
X142919000Y-106636000D02*
X142919000Y-106836000D01*
G75*
G02*
X142819000Y-106936000I-100000J0D01*
G01*
X141544000Y-106936000D01*
G75*
G02*
X141444000Y-106836000I0J100000D01*
G01*
X141444000Y-106636000D01*
G75*
G02*
X141544000Y-106536000I100000J0D01*
G01*
X142819000Y-106536000D01*
G75*
G02*
X142919000Y-106636000I0J-100000D01*
G01*
G37*
G36*
G01*
X142919000Y-107286000D02*
X142919000Y-107486000D01*
G75*
G02*
X142819000Y-107586000I-100000J0D01*
G01*
X141544000Y-107586000D01*
G75*
G02*
X141444000Y-107486000I0J100000D01*
G01*
X141444000Y-107286000D01*
G75*
G02*
X141544000Y-107186000I100000J0D01*
G01*
X142819000Y-107186000D01*
G75*
G02*
X142919000Y-107286000I0J-100000D01*
G01*
G37*
G36*
G01*
X142919000Y-107936000D02*
X142919000Y-108136000D01*
G75*
G02*
X142819000Y-108236000I-100000J0D01*
G01*
X141544000Y-108236000D01*
G75*
G02*
X141444000Y-108136000I0J100000D01*
G01*
X141444000Y-107936000D01*
G75*
G02*
X141544000Y-107836000I100000J0D01*
G01*
X142819000Y-107836000D01*
G75*
G02*
X142919000Y-107936000I0J-100000D01*
G01*
G37*
G36*
G01*
X142919000Y-108586000D02*
X142919000Y-108786000D01*
G75*
G02*
X142819000Y-108886000I-100000J0D01*
G01*
X141544000Y-108886000D01*
G75*
G02*
X141444000Y-108786000I0J100000D01*
G01*
X141444000Y-108586000D01*
G75*
G02*
X141544000Y-108486000I100000J0D01*
G01*
X142819000Y-108486000D01*
G75*
G02*
X142919000Y-108586000I0J-100000D01*
G01*
G37*
G36*
G01*
X142919000Y-109236000D02*
X142919000Y-109436000D01*
G75*
G02*
X142819000Y-109536000I-100000J0D01*
G01*
X141544000Y-109536000D01*
G75*
G02*
X141444000Y-109436000I0J100000D01*
G01*
X141444000Y-109236000D01*
G75*
G02*
X141544000Y-109136000I100000J0D01*
G01*
X142819000Y-109136000D01*
G75*
G02*
X142919000Y-109236000I0J-100000D01*
G01*
G37*
G36*
G01*
X142919000Y-109886000D02*
X142919000Y-110086000D01*
G75*
G02*
X142819000Y-110186000I-100000J0D01*
G01*
X141544000Y-110186000D01*
G75*
G02*
X141444000Y-110086000I0J100000D01*
G01*
X141444000Y-109886000D01*
G75*
G02*
X141544000Y-109786000I100000J0D01*
G01*
X142819000Y-109786000D01*
G75*
G02*
X142919000Y-109886000I0J-100000D01*
G01*
G37*
%TD*%
D10*
%TO.C,U2*%
X130794000Y-110531000D03*
X130294000Y-110531000D03*
X129794000Y-110531000D03*
X129294000Y-110531000D03*
X128794000Y-110531000D03*
X128794000Y-106131000D03*
X129294000Y-106131000D03*
X129794000Y-106131000D03*
X130294000Y-106131000D03*
X130794000Y-106131000D03*
%TD*%
%TO.C,U1*%
G36*
G01*
X128868999Y-98296000D02*
X129419001Y-98296000D01*
G75*
G02*
X129669000Y-98545999I0J-249999D01*
G01*
X129669000Y-99096001D01*
G75*
G02*
X129419001Y-99346000I-249999J0D01*
G01*
X128868999Y-99346000D01*
G75*
G02*
X128619000Y-99096001I0J249999D01*
G01*
X128619000Y-98545999D01*
G75*
G02*
X128868999Y-98296000I249999J0D01*
G01*
G37*
G36*
G01*
X130168999Y-98296000D02*
X130719001Y-98296000D01*
G75*
G02*
X130969000Y-98545999I0J-249999D01*
G01*
X130969000Y-99096001D01*
G75*
G02*
X130719001Y-99346000I-249999J0D01*
G01*
X130168999Y-99346000D01*
G75*
G02*
X129919000Y-99096001I0J249999D01*
G01*
X129919000Y-98545999D01*
G75*
G02*
X130168999Y-98296000I249999J0D01*
G01*
G37*
G36*
G01*
X128868999Y-96996000D02*
X129419001Y-96996000D01*
G75*
G02*
X129669000Y-97245999I0J-249999D01*
G01*
X129669000Y-97796001D01*
G75*
G02*
X129419001Y-98046000I-249999J0D01*
G01*
X128868999Y-98046000D01*
G75*
G02*
X128619000Y-97796001I0J249999D01*
G01*
X128619000Y-97245999D01*
G75*
G02*
X128868999Y-96996000I249999J0D01*
G01*
G37*
G36*
G01*
X130168999Y-96996000D02*
X130719001Y-96996000D01*
G75*
G02*
X130969000Y-97245999I0J-249999D01*
G01*
X130969000Y-97796001D01*
G75*
G02*
X130719001Y-98046000I-249999J0D01*
G01*
X130168999Y-98046000D01*
G75*
G02*
X129919000Y-97796001I0J249999D01*
G01*
X129919000Y-97245999D01*
G75*
G02*
X130168999Y-96996000I249999J0D01*
G01*
G37*
G36*
G01*
X131381500Y-96796000D02*
X132081500Y-96796000D01*
G75*
G02*
X132144000Y-96858500I0J-62500D01*
G01*
X132144000Y-96983500D01*
G75*
G02*
X132081500Y-97046000I-62500J0D01*
G01*
X131381500Y-97046000D01*
G75*
G02*
X131319000Y-96983500I0J62500D01*
G01*
X131319000Y-96858500D01*
G75*
G02*
X131381500Y-96796000I62500J0D01*
G01*
G37*
G36*
G01*
X131381500Y-97296000D02*
X132081500Y-97296000D01*
G75*
G02*
X132144000Y-97358500I0J-62500D01*
G01*
X132144000Y-97483500D01*
G75*
G02*
X132081500Y-97546000I-62500J0D01*
G01*
X131381500Y-97546000D01*
G75*
G02*
X131319000Y-97483500I0J62500D01*
G01*
X131319000Y-97358500D01*
G75*
G02*
X131381500Y-97296000I62500J0D01*
G01*
G37*
G36*
G01*
X131381500Y-97796000D02*
X132081500Y-97796000D01*
G75*
G02*
X132144000Y-97858500I0J-62500D01*
G01*
X132144000Y-97983500D01*
G75*
G02*
X132081500Y-98046000I-62500J0D01*
G01*
X131381500Y-98046000D01*
G75*
G02*
X131319000Y-97983500I0J62500D01*
G01*
X131319000Y-97858500D01*
G75*
G02*
X131381500Y-97796000I62500J0D01*
G01*
G37*
G36*
G01*
X131381500Y-98296000D02*
X132081500Y-98296000D01*
G75*
G02*
X132144000Y-98358500I0J-62500D01*
G01*
X132144000Y-98483500D01*
G75*
G02*
X132081500Y-98546000I-62500J0D01*
G01*
X131381500Y-98546000D01*
G75*
G02*
X131319000Y-98483500I0J62500D01*
G01*
X131319000Y-98358500D01*
G75*
G02*
X131381500Y-98296000I62500J0D01*
G01*
G37*
G36*
G01*
X131381500Y-98796000D02*
X132081500Y-98796000D01*
G75*
G02*
X132144000Y-98858500I0J-62500D01*
G01*
X132144000Y-98983500D01*
G75*
G02*
X132081500Y-99046000I-62500J0D01*
G01*
X131381500Y-99046000D01*
G75*
G02*
X131319000Y-98983500I0J62500D01*
G01*
X131319000Y-98858500D01*
G75*
G02*
X131381500Y-98796000I62500J0D01*
G01*
G37*
G36*
G01*
X131381500Y-99296000D02*
X132081500Y-99296000D01*
G75*
G02*
X132144000Y-99358500I0J-62500D01*
G01*
X132144000Y-99483500D01*
G75*
G02*
X132081500Y-99546000I-62500J0D01*
G01*
X131381500Y-99546000D01*
G75*
G02*
X131319000Y-99483500I0J62500D01*
G01*
X131319000Y-99358500D01*
G75*
G02*
X131381500Y-99296000I62500J0D01*
G01*
G37*
G36*
G01*
X130981500Y-99696000D02*
X131106500Y-99696000D01*
G75*
G02*
X131169000Y-99758500I0J-62500D01*
G01*
X131169000Y-100458500D01*
G75*
G02*
X131106500Y-100521000I-62500J0D01*
G01*
X130981500Y-100521000D01*
G75*
G02*
X130919000Y-100458500I0J62500D01*
G01*
X130919000Y-99758500D01*
G75*
G02*
X130981500Y-99696000I62500J0D01*
G01*
G37*
G36*
G01*
X130481500Y-99696000D02*
X130606500Y-99696000D01*
G75*
G02*
X130669000Y-99758500I0J-62500D01*
G01*
X130669000Y-100458500D01*
G75*
G02*
X130606500Y-100521000I-62500J0D01*
G01*
X130481500Y-100521000D01*
G75*
G02*
X130419000Y-100458500I0J62500D01*
G01*
X130419000Y-99758500D01*
G75*
G02*
X130481500Y-99696000I62500J0D01*
G01*
G37*
G36*
G01*
X129981500Y-99696000D02*
X130106500Y-99696000D01*
G75*
G02*
X130169000Y-99758500I0J-62500D01*
G01*
X130169000Y-100458500D01*
G75*
G02*
X130106500Y-100521000I-62500J0D01*
G01*
X129981500Y-100521000D01*
G75*
G02*
X129919000Y-100458500I0J62500D01*
G01*
X129919000Y-99758500D01*
G75*
G02*
X129981500Y-99696000I62500J0D01*
G01*
G37*
G36*
G01*
X129481500Y-99696000D02*
X129606500Y-99696000D01*
G75*
G02*
X129669000Y-99758500I0J-62500D01*
G01*
X129669000Y-100458500D01*
G75*
G02*
X129606500Y-100521000I-62500J0D01*
G01*
X129481500Y-100521000D01*
G75*
G02*
X129419000Y-100458500I0J62500D01*
G01*
X129419000Y-99758500D01*
G75*
G02*
X129481500Y-99696000I62500J0D01*
G01*
G37*
G36*
G01*
X128981500Y-99696000D02*
X129106500Y-99696000D01*
G75*
G02*
X129169000Y-99758500I0J-62500D01*
G01*
X129169000Y-100458500D01*
G75*
G02*
X129106500Y-100521000I-62500J0D01*
G01*
X128981500Y-100521000D01*
G75*
G02*
X128919000Y-100458500I0J62500D01*
G01*
X128919000Y-99758500D01*
G75*
G02*
X128981500Y-99696000I62500J0D01*
G01*
G37*
G36*
G01*
X128481500Y-99696000D02*
X128606500Y-99696000D01*
G75*
G02*
X128669000Y-99758500I0J-62500D01*
G01*
X128669000Y-100458500D01*
G75*
G02*
X128606500Y-100521000I-62500J0D01*
G01*
X128481500Y-100521000D01*
G75*
G02*
X128419000Y-100458500I0J62500D01*
G01*
X128419000Y-99758500D01*
G75*
G02*
X128481500Y-99696000I62500J0D01*
G01*
G37*
G36*
G01*
X127506500Y-99296000D02*
X128206500Y-99296000D01*
G75*
G02*
X128269000Y-99358500I0J-62500D01*
G01*
X128269000Y-99483500D01*
G75*
G02*
X128206500Y-99546000I-62500J0D01*
G01*
X127506500Y-99546000D01*
G75*
G02*
X127444000Y-99483500I0J62500D01*
G01*
X127444000Y-99358500D01*
G75*
G02*
X127506500Y-99296000I62500J0D01*
G01*
G37*
G36*
G01*
X127506500Y-98796000D02*
X128206500Y-98796000D01*
G75*
G02*
X128269000Y-98858500I0J-62500D01*
G01*
X128269000Y-98983500D01*
G75*
G02*
X128206500Y-99046000I-62500J0D01*
G01*
X127506500Y-99046000D01*
G75*
G02*
X127444000Y-98983500I0J62500D01*
G01*
X127444000Y-98858500D01*
G75*
G02*
X127506500Y-98796000I62500J0D01*
G01*
G37*
G36*
G01*
X127506500Y-98296000D02*
X128206500Y-98296000D01*
G75*
G02*
X128269000Y-98358500I0J-62500D01*
G01*
X128269000Y-98483500D01*
G75*
G02*
X128206500Y-98546000I-62500J0D01*
G01*
X127506500Y-98546000D01*
G75*
G02*
X127444000Y-98483500I0J62500D01*
G01*
X127444000Y-98358500D01*
G75*
G02*
X127506500Y-98296000I62500J0D01*
G01*
G37*
G36*
G01*
X127506500Y-97796000D02*
X128206500Y-97796000D01*
G75*
G02*
X128269000Y-97858500I0J-62500D01*
G01*
X128269000Y-97983500D01*
G75*
G02*
X128206500Y-98046000I-62500J0D01*
G01*
X127506500Y-98046000D01*
G75*
G02*
X127444000Y-97983500I0J62500D01*
G01*
X127444000Y-97858500D01*
G75*
G02*
X127506500Y-97796000I62500J0D01*
G01*
G37*
G36*
G01*
X127506500Y-97296000D02*
X128206500Y-97296000D01*
G75*
G02*
X128269000Y-97358500I0J-62500D01*
G01*
X128269000Y-97483500D01*
G75*
G02*
X128206500Y-97546000I-62500J0D01*
G01*
X127506500Y-97546000D01*
G75*
G02*
X127444000Y-97483500I0J62500D01*
G01*
X127444000Y-97358500D01*
G75*
G02*
X127506500Y-97296000I62500J0D01*
G01*
G37*
G36*
G01*
X127506500Y-96796000D02*
X128206500Y-96796000D01*
G75*
G02*
X128269000Y-96858500I0J-62500D01*
G01*
X128269000Y-96983500D01*
G75*
G02*
X128206500Y-97046000I-62500J0D01*
G01*
X127506500Y-97046000D01*
G75*
G02*
X127444000Y-96983500I0J62500D01*
G01*
X127444000Y-96858500D01*
G75*
G02*
X127506500Y-96796000I62500J0D01*
G01*
G37*
G36*
G01*
X128481500Y-95821000D02*
X128606500Y-95821000D01*
G75*
G02*
X128669000Y-95883500I0J-62500D01*
G01*
X128669000Y-96583500D01*
G75*
G02*
X128606500Y-96646000I-62500J0D01*
G01*
X128481500Y-96646000D01*
G75*
G02*
X128419000Y-96583500I0J62500D01*
G01*
X128419000Y-95883500D01*
G75*
G02*
X128481500Y-95821000I62500J0D01*
G01*
G37*
G36*
G01*
X128981500Y-95821000D02*
X129106500Y-95821000D01*
G75*
G02*
X129169000Y-95883500I0J-62500D01*
G01*
X129169000Y-96583500D01*
G75*
G02*
X129106500Y-96646000I-62500J0D01*
G01*
X128981500Y-96646000D01*
G75*
G02*
X128919000Y-96583500I0J62500D01*
G01*
X128919000Y-95883500D01*
G75*
G02*
X128981500Y-95821000I62500J0D01*
G01*
G37*
G36*
G01*
X129481500Y-95821000D02*
X129606500Y-95821000D01*
G75*
G02*
X129669000Y-95883500I0J-62500D01*
G01*
X129669000Y-96583500D01*
G75*
G02*
X129606500Y-96646000I-62500J0D01*
G01*
X129481500Y-96646000D01*
G75*
G02*
X129419000Y-96583500I0J62500D01*
G01*
X129419000Y-95883500D01*
G75*
G02*
X129481500Y-95821000I62500J0D01*
G01*
G37*
G36*
G01*
X129981500Y-95821000D02*
X130106500Y-95821000D01*
G75*
G02*
X130169000Y-95883500I0J-62500D01*
G01*
X130169000Y-96583500D01*
G75*
G02*
X130106500Y-96646000I-62500J0D01*
G01*
X129981500Y-96646000D01*
G75*
G02*
X129919000Y-96583500I0J62500D01*
G01*
X129919000Y-95883500D01*
G75*
G02*
X129981500Y-95821000I62500J0D01*
G01*
G37*
G36*
G01*
X130481500Y-95821000D02*
X130606500Y-95821000D01*
G75*
G02*
X130669000Y-95883500I0J-62500D01*
G01*
X130669000Y-96583500D01*
G75*
G02*
X130606500Y-96646000I-62500J0D01*
G01*
X130481500Y-96646000D01*
G75*
G02*
X130419000Y-96583500I0J62500D01*
G01*
X130419000Y-95883500D01*
G75*
G02*
X130481500Y-95821000I62500J0D01*
G01*
G37*
G36*
G01*
X130981500Y-95821000D02*
X131106500Y-95821000D01*
G75*
G02*
X131169000Y-95883500I0J-62500D01*
G01*
X131169000Y-96583500D01*
G75*
G02*
X131106500Y-96646000I-62500J0D01*
G01*
X130981500Y-96646000D01*
G75*
G02*
X130919000Y-96583500I0J62500D01*
G01*
X130919000Y-95883500D01*
G75*
G02*
X130981500Y-95821000I62500J0D01*
G01*
G37*
%TD*%
%TO.C,R3*%
G36*
G01*
X128848500Y-103888250D02*
X128848500Y-103375750D01*
G75*
G02*
X129067250Y-103157000I218750J0D01*
G01*
X129504750Y-103157000D01*
G75*
G02*
X129723500Y-103375750I0J-218750D01*
G01*
X129723500Y-103888250D01*
G75*
G02*
X129504750Y-104107000I-218750J0D01*
G01*
X129067250Y-104107000D01*
G75*
G02*
X128848500Y-103888250I0J218750D01*
G01*
G37*
G36*
G01*
X127273500Y-103888250D02*
X127273500Y-103375750D01*
G75*
G02*
X127492250Y-103157000I218750J0D01*
G01*
X127929750Y-103157000D01*
G75*
G02*
X128148500Y-103375750I0J-218750D01*
G01*
X128148500Y-103888250D01*
G75*
G02*
X127929750Y-104107000I-218750J0D01*
G01*
X127492250Y-104107000D01*
G75*
G02*
X127273500Y-103888250I0J218750D01*
G01*
G37*
%TD*%
%TO.C,R2*%
G36*
G01*
X131095000Y-103375750D02*
X131095000Y-103888250D01*
G75*
G02*
X130876250Y-104107000I-218750J0D01*
G01*
X130438750Y-104107000D01*
G75*
G02*
X130220000Y-103888250I0J218750D01*
G01*
X130220000Y-103375750D01*
G75*
G02*
X130438750Y-103157000I218750J0D01*
G01*
X130876250Y-103157000D01*
G75*
G02*
X131095000Y-103375750I0J-218750D01*
G01*
G37*
G36*
G01*
X132670000Y-103375750D02*
X132670000Y-103888250D01*
G75*
G02*
X132451250Y-104107000I-218750J0D01*
G01*
X132013750Y-104107000D01*
G75*
G02*
X131795000Y-103888250I0J218750D01*
G01*
X131795000Y-103375750D01*
G75*
G02*
X132013750Y-103157000I218750J0D01*
G01*
X132451250Y-103157000D01*
G75*
G02*
X132670000Y-103375750I0J-218750D01*
G01*
G37*
%TD*%
M02*
