%TF.GenerationSoftware,KiCad,Pcbnew,(5.1.6)-1*%
%TF.CreationDate,2020-11-21T10:09:12-08:00*%
%TF.ProjectId,SoftTakeover,536f6674-5461-46b6-956f-7665722e6b69,rev?*%
%TF.SameCoordinates,Original*%
%TF.FileFunction,Legend,Top*%
%TF.FilePolarity,Positive*%
%FSLAX46Y46*%
G04 Gerber Fmt 4.6, Leading zero omitted, Abs format (unit mm)*
G04 Created by KiCad (PCBNEW (5.1.6)-1) date 2020-11-21 10:09:12*
%MOMM*%
%LPD*%
G01*
G04 APERTURE LIST*
%ADD10C,0.300000*%
%ADD11C,0.150000*%
%ADD12C,0.120000*%
G04 APERTURE END LIST*
D10*
X127408714Y-92217714D02*
X127480142Y-92146285D01*
X127551571Y-92217714D01*
X127480142Y-92289142D01*
X127408714Y-92217714D01*
X127551571Y-92217714D01*
X126980142Y-91503428D02*
X126980142Y-90360571D01*
X127408714Y-89646285D02*
X127480142Y-89574857D01*
X127551571Y-89646285D01*
X127480142Y-89717714D01*
X127408714Y-89646285D01*
X127551571Y-89646285D01*
D11*
X128530666Y-114686666D02*
X128530666Y-113986666D01*
X128530666Y-114320000D02*
X128930666Y-114320000D01*
X128930666Y-114686666D02*
X128930666Y-113986666D01*
X129230666Y-114486666D02*
X129564000Y-114486666D01*
X129164000Y-114686666D02*
X129397333Y-113986666D01*
X129630666Y-114686666D01*
X130264000Y-114686666D02*
X130030666Y-114353333D01*
X129864000Y-114686666D02*
X129864000Y-113986666D01*
X130130666Y-113986666D01*
X130197333Y-114020000D01*
X130230666Y-114053333D01*
X130264000Y-114120000D01*
X130264000Y-114220000D01*
X130230666Y-114286666D01*
X130197333Y-114320000D01*
X130130666Y-114353333D01*
X129864000Y-114353333D01*
X130930666Y-114020000D02*
X130864000Y-113986666D01*
X130764000Y-113986666D01*
X130664000Y-114020000D01*
X130597333Y-114086666D01*
X130564000Y-114153333D01*
X130530666Y-114286666D01*
X130530666Y-114386666D01*
X130564000Y-114520000D01*
X130597333Y-114586666D01*
X130664000Y-114653333D01*
X130764000Y-114686666D01*
X130830666Y-114686666D01*
X130930666Y-114653333D01*
X130964000Y-114620000D01*
X130964000Y-114386666D01*
X130830666Y-114386666D01*
X131664000Y-114686666D02*
X131430666Y-114353333D01*
X131264000Y-114686666D02*
X131264000Y-113986666D01*
X131530666Y-113986666D01*
X131597333Y-114020000D01*
X131630666Y-114053333D01*
X131664000Y-114120000D01*
X131664000Y-114220000D01*
X131630666Y-114286666D01*
X131597333Y-114320000D01*
X131530666Y-114353333D01*
X131264000Y-114353333D01*
X132097333Y-113986666D02*
X132230666Y-113986666D01*
X132297333Y-114020000D01*
X132364000Y-114086666D01*
X132397333Y-114220000D01*
X132397333Y-114453333D01*
X132364000Y-114586666D01*
X132297333Y-114653333D01*
X132230666Y-114686666D01*
X132097333Y-114686666D01*
X132030666Y-114653333D01*
X131964000Y-114586666D01*
X131930666Y-114453333D01*
X131930666Y-114220000D01*
X131964000Y-114086666D01*
X132030666Y-114020000D01*
X132097333Y-113986666D01*
X132597333Y-113986666D02*
X132830666Y-114686666D01*
X133064000Y-113986666D01*
X133297333Y-114320000D02*
X133530666Y-114320000D01*
X133630666Y-114686666D02*
X133297333Y-114686666D01*
X133297333Y-113986666D01*
X133630666Y-113986666D01*
X127097333Y-115853333D02*
X127197333Y-115886666D01*
X127364000Y-115886666D01*
X127430666Y-115853333D01*
X127464000Y-115820000D01*
X127497333Y-115753333D01*
X127497333Y-115686666D01*
X127464000Y-115620000D01*
X127430666Y-115586666D01*
X127364000Y-115553333D01*
X127230666Y-115520000D01*
X127164000Y-115486666D01*
X127130666Y-115453333D01*
X127097333Y-115386666D01*
X127097333Y-115320000D01*
X127130666Y-115253333D01*
X127164000Y-115220000D01*
X127230666Y-115186666D01*
X127397333Y-115186666D01*
X127497333Y-115220000D01*
X127930666Y-115186666D02*
X128064000Y-115186666D01*
X128130666Y-115220000D01*
X128197333Y-115286666D01*
X128230666Y-115420000D01*
X128230666Y-115653333D01*
X128197333Y-115786666D01*
X128130666Y-115853333D01*
X128064000Y-115886666D01*
X127930666Y-115886666D01*
X127864000Y-115853333D01*
X127797333Y-115786666D01*
X127764000Y-115653333D01*
X127764000Y-115420000D01*
X127797333Y-115286666D01*
X127864000Y-115220000D01*
X127930666Y-115186666D01*
X128764000Y-115520000D02*
X128530666Y-115520000D01*
X128530666Y-115886666D02*
X128530666Y-115186666D01*
X128864000Y-115186666D01*
X129030666Y-115186666D02*
X129430666Y-115186666D01*
X129230666Y-115886666D02*
X129230666Y-115186666D01*
X130097333Y-115186666D02*
X130497333Y-115186666D01*
X130297333Y-115886666D02*
X130297333Y-115186666D01*
X130697333Y-115686666D02*
X131030666Y-115686666D01*
X130630666Y-115886666D02*
X130864000Y-115186666D01*
X131097333Y-115886666D01*
X131330666Y-115886666D02*
X131330666Y-115186666D01*
X131730666Y-115886666D02*
X131430666Y-115486666D01*
X131730666Y-115186666D02*
X131330666Y-115586666D01*
X132030666Y-115520000D02*
X132264000Y-115520000D01*
X132364000Y-115886666D02*
X132030666Y-115886666D01*
X132030666Y-115186666D01*
X132364000Y-115186666D01*
X132797333Y-115186666D02*
X132930666Y-115186666D01*
X132997333Y-115220000D01*
X133064000Y-115286666D01*
X133097333Y-115420000D01*
X133097333Y-115653333D01*
X133064000Y-115786666D01*
X132997333Y-115853333D01*
X132930666Y-115886666D01*
X132797333Y-115886666D01*
X132730666Y-115853333D01*
X132664000Y-115786666D01*
X132630666Y-115653333D01*
X132630666Y-115420000D01*
X132664000Y-115286666D01*
X132730666Y-115220000D01*
X132797333Y-115186666D01*
X133297333Y-115186666D02*
X133530666Y-115886666D01*
X133764000Y-115186666D01*
X133997333Y-115520000D02*
X134230666Y-115520000D01*
X134330666Y-115886666D02*
X133997333Y-115886666D01*
X133997333Y-115186666D01*
X134330666Y-115186666D01*
X135030666Y-115886666D02*
X134797333Y-115553333D01*
X134630666Y-115886666D02*
X134630666Y-115186666D01*
X134897333Y-115186666D01*
X134964000Y-115220000D01*
X134997333Y-115253333D01*
X135030666Y-115320000D01*
X135030666Y-115420000D01*
X134997333Y-115486666D01*
X134964000Y-115520000D01*
X134897333Y-115553333D01*
X134630666Y-115553333D01*
X129564000Y-117086666D02*
X129330666Y-116753333D01*
X129164000Y-117086666D02*
X129164000Y-116386666D01*
X129430666Y-116386666D01*
X129497333Y-116420000D01*
X129530666Y-116453333D01*
X129564000Y-116520000D01*
X129564000Y-116620000D01*
X129530666Y-116686666D01*
X129497333Y-116720000D01*
X129430666Y-116753333D01*
X129164000Y-116753333D01*
X129864000Y-116720000D02*
X130097333Y-116720000D01*
X130197333Y-117086666D02*
X129864000Y-117086666D01*
X129864000Y-116386666D01*
X130197333Y-116386666D01*
X130397333Y-116386666D02*
X130630666Y-117086666D01*
X130864000Y-116386666D01*
X131564000Y-116386666D02*
X131997333Y-116386666D01*
X131764000Y-116653333D01*
X131864000Y-116653333D01*
X131930666Y-116686666D01*
X131964000Y-116720000D01*
X131997333Y-116786666D01*
X131997333Y-116953333D01*
X131964000Y-117020000D01*
X131930666Y-117053333D01*
X131864000Y-117086666D01*
X131664000Y-117086666D01*
X131597333Y-117053333D01*
X131564000Y-117020000D01*
X132297333Y-117020000D02*
X132330666Y-117053333D01*
X132297333Y-117086666D01*
X132264000Y-117053333D01*
X132297333Y-117020000D01*
X132297333Y-117086666D01*
X132930666Y-116620000D02*
X132930666Y-117086666D01*
X132764000Y-116353333D02*
X132597333Y-116853333D01*
X133030666Y-116853333D01*
D12*
%TO.C,C6*%
X139638721Y-111250000D02*
X139964279Y-111250000D01*
X139638721Y-112270000D02*
X139964279Y-112270000D01*
%TO.C,C2*%
X143063279Y-117350000D02*
X142737721Y-117350000D01*
X143063279Y-116330000D02*
X142737721Y-116330000D01*
%TO.C,C5*%
X139638721Y-113155000D02*
X139964279Y-113155000D01*
X139638721Y-114175000D02*
X139964279Y-114175000D01*
%TO.C,C4*%
X133475000Y-96403279D02*
X133475000Y-96077721D01*
X134495000Y-96403279D02*
X134495000Y-96077721D01*
%TO.C,C3*%
X131824000Y-108493779D02*
X131824000Y-108168221D01*
X132844000Y-108493779D02*
X132844000Y-108168221D01*
%TO.C,C1*%
X143063279Y-89791000D02*
X142737721Y-89791000D01*
X143063279Y-88771000D02*
X142737721Y-88771000D01*
%TO.C,U3*%
X139319000Y-103676000D02*
X137119000Y-103676000D01*
X139319000Y-103676000D02*
X141519000Y-103676000D01*
X139319000Y-110446000D02*
X137119000Y-110446000D01*
X139319000Y-110446000D02*
X142919000Y-110446000D01*
D11*
%TO.C,U2*%
X131469000Y-106656000D02*
X131244000Y-106656000D01*
X131469000Y-110006000D02*
X131169000Y-110006000D01*
X128119000Y-110006000D02*
X128419000Y-110006000D01*
X128119000Y-106656000D02*
X128419000Y-106656000D01*
X131469000Y-106656000D02*
X131469000Y-110006000D01*
X128119000Y-106656000D02*
X128119000Y-110006000D01*
X131244000Y-106656000D02*
X131244000Y-105431000D01*
D12*
%TO.C,U1*%
X131904000Y-99806000D02*
X131904000Y-100281000D01*
X131904000Y-100281000D02*
X131429000Y-100281000D01*
X127684000Y-96536000D02*
X127684000Y-96061000D01*
X127684000Y-96061000D02*
X128159000Y-96061000D01*
X127684000Y-99806000D02*
X127684000Y-100281000D01*
X127684000Y-100281000D02*
X128159000Y-100281000D01*
X131904000Y-96536000D02*
X131904000Y-96061000D01*
%TO.C,R3*%
X128335721Y-103122000D02*
X128661279Y-103122000D01*
X128335721Y-104142000D02*
X128661279Y-104142000D01*
%TO.C,R2*%
X131607779Y-104142000D02*
X131282221Y-104142000D01*
X131607779Y-103122000D02*
X131282221Y-103122000D01*
%TO.C,J3*%
X137935000Y-93220000D02*
X139065000Y-93220000D01*
X137935000Y-93980000D02*
X137935000Y-93220000D01*
X140642530Y-93285000D02*
X141465000Y-93285000D01*
X139825000Y-93285000D02*
X140027470Y-93285000D01*
X139825000Y-93416529D02*
X139825000Y-93285000D01*
X139825000Y-94686529D02*
X139825000Y-94543471D01*
X139628471Y-94740000D02*
X139771529Y-94740000D01*
X137935000Y-94740000D02*
X138501529Y-94740000D01*
X141465000Y-93285000D02*
X141465000Y-99755000D01*
X137935000Y-94740000D02*
X137935000Y-99755000D01*
X139372530Y-99755000D02*
X140027470Y-99755000D01*
X140642530Y-99755000D02*
X141465000Y-99755000D01*
X137935000Y-99755000D02*
X138757470Y-99755000D01*
%TO.C,C6*%
D11*
X137247333Y-112117142D02*
X137199714Y-112164761D01*
X137056857Y-112212380D01*
X136961619Y-112212380D01*
X136818761Y-112164761D01*
X136723523Y-112069523D01*
X136675904Y-111974285D01*
X136628285Y-111783809D01*
X136628285Y-111640952D01*
X136675904Y-111450476D01*
X136723523Y-111355238D01*
X136818761Y-111260000D01*
X136961619Y-111212380D01*
X137056857Y-111212380D01*
X137199714Y-111260000D01*
X137247333Y-111307619D01*
X138104476Y-111212380D02*
X137914000Y-111212380D01*
X137818761Y-111260000D01*
X137771142Y-111307619D01*
X137675904Y-111450476D01*
X137628285Y-111640952D01*
X137628285Y-112021904D01*
X137675904Y-112117142D01*
X137723523Y-112164761D01*
X137818761Y-112212380D01*
X138009238Y-112212380D01*
X138104476Y-112164761D01*
X138152095Y-112117142D01*
X138199714Y-112021904D01*
X138199714Y-111783809D01*
X138152095Y-111688571D01*
X138104476Y-111640952D01*
X138009238Y-111593333D01*
X137818761Y-111593333D01*
X137723523Y-111640952D01*
X137675904Y-111688571D01*
X137628285Y-111783809D01*
%TO.C,C2*%
X139914333Y-117197142D02*
X139866714Y-117244761D01*
X139723857Y-117292380D01*
X139628619Y-117292380D01*
X139485761Y-117244761D01*
X139390523Y-117149523D01*
X139342904Y-117054285D01*
X139295285Y-116863809D01*
X139295285Y-116720952D01*
X139342904Y-116530476D01*
X139390523Y-116435238D01*
X139485761Y-116340000D01*
X139628619Y-116292380D01*
X139723857Y-116292380D01*
X139866714Y-116340000D01*
X139914333Y-116387619D01*
X140295285Y-116387619D02*
X140342904Y-116340000D01*
X140438142Y-116292380D01*
X140676238Y-116292380D01*
X140771476Y-116340000D01*
X140819095Y-116387619D01*
X140866714Y-116482857D01*
X140866714Y-116578095D01*
X140819095Y-116720952D01*
X140247666Y-117292380D01*
X140866714Y-117292380D01*
%TO.C,C5*%
X136815333Y-114022142D02*
X136767714Y-114069761D01*
X136624857Y-114117380D01*
X136529619Y-114117380D01*
X136386761Y-114069761D01*
X136291523Y-113974523D01*
X136243904Y-113879285D01*
X136196285Y-113688809D01*
X136196285Y-113545952D01*
X136243904Y-113355476D01*
X136291523Y-113260238D01*
X136386761Y-113165000D01*
X136529619Y-113117380D01*
X136624857Y-113117380D01*
X136767714Y-113165000D01*
X136815333Y-113212619D01*
X137720095Y-113117380D02*
X137243904Y-113117380D01*
X137196285Y-113593571D01*
X137243904Y-113545952D01*
X137339142Y-113498333D01*
X137577238Y-113498333D01*
X137672476Y-113545952D01*
X137720095Y-113593571D01*
X137767714Y-113688809D01*
X137767714Y-113926904D01*
X137720095Y-114022142D01*
X137672476Y-114069761D01*
X137577238Y-114117380D01*
X137339142Y-114117380D01*
X137243904Y-114069761D01*
X137196285Y-114022142D01*
%TO.C,C4*%
X133818333Y-94337142D02*
X133770714Y-94384761D01*
X133627857Y-94432380D01*
X133532619Y-94432380D01*
X133389761Y-94384761D01*
X133294523Y-94289523D01*
X133246904Y-94194285D01*
X133199285Y-94003809D01*
X133199285Y-93860952D01*
X133246904Y-93670476D01*
X133294523Y-93575238D01*
X133389761Y-93480000D01*
X133532619Y-93432380D01*
X133627857Y-93432380D01*
X133770714Y-93480000D01*
X133818333Y-93527619D01*
X134675476Y-93765714D02*
X134675476Y-94432380D01*
X134437380Y-93384761D02*
X134199285Y-94099047D01*
X134818333Y-94099047D01*
%TO.C,C3*%
X132294333Y-106529142D02*
X132246714Y-106576761D01*
X132103857Y-106624380D01*
X132008619Y-106624380D01*
X131865761Y-106576761D01*
X131770523Y-106481523D01*
X131722904Y-106386285D01*
X131675285Y-106195809D01*
X131675285Y-106052952D01*
X131722904Y-105862476D01*
X131770523Y-105767238D01*
X131865761Y-105672000D01*
X132008619Y-105624380D01*
X132103857Y-105624380D01*
X132246714Y-105672000D01*
X132294333Y-105719619D01*
X132627666Y-105624380D02*
X133246714Y-105624380D01*
X132913380Y-106005333D01*
X133056238Y-106005333D01*
X133151476Y-106052952D01*
X133199095Y-106100571D01*
X133246714Y-106195809D01*
X133246714Y-106433904D01*
X133199095Y-106529142D01*
X133151476Y-106576761D01*
X133056238Y-106624380D01*
X132770523Y-106624380D01*
X132675285Y-106576761D01*
X132627666Y-106529142D01*
%TO.C,C1*%
X142733833Y-91068142D02*
X142686214Y-91115761D01*
X142543357Y-91163380D01*
X142448119Y-91163380D01*
X142305261Y-91115761D01*
X142210023Y-91020523D01*
X142162404Y-90925285D01*
X142114785Y-90734809D01*
X142114785Y-90591952D01*
X142162404Y-90401476D01*
X142210023Y-90306238D01*
X142305261Y-90211000D01*
X142448119Y-90163380D01*
X142543357Y-90163380D01*
X142686214Y-90211000D01*
X142733833Y-90258619D01*
X143686214Y-91163380D02*
X143114785Y-91163380D01*
X143400500Y-91163380D02*
X143400500Y-90163380D01*
X143305261Y-90306238D01*
X143210023Y-90401476D01*
X143114785Y-90449095D01*
%TO.C,U3*%
X138811095Y-102068380D02*
X138811095Y-102877904D01*
X138858714Y-102973142D01*
X138906333Y-103020761D01*
X139001571Y-103068380D01*
X139192047Y-103068380D01*
X139287285Y-103020761D01*
X139334904Y-102973142D01*
X139382523Y-102877904D01*
X139382523Y-102068380D01*
X139763476Y-102068380D02*
X140382523Y-102068380D01*
X140049190Y-102449333D01*
X140192047Y-102449333D01*
X140287285Y-102496952D01*
X140334904Y-102544571D01*
X140382523Y-102639809D01*
X140382523Y-102877904D01*
X140334904Y-102973142D01*
X140287285Y-103020761D01*
X140192047Y-103068380D01*
X139906333Y-103068380D01*
X139811095Y-103020761D01*
X139763476Y-102973142D01*
%TO.C,U2*%
X131786380Y-109092904D02*
X132595904Y-109092904D01*
X132691142Y-109045285D01*
X132738761Y-108997666D01*
X132786380Y-108902428D01*
X132786380Y-108711952D01*
X132738761Y-108616714D01*
X132691142Y-108569095D01*
X132595904Y-108521476D01*
X131786380Y-108521476D01*
X131881619Y-108092904D02*
X131834000Y-108045285D01*
X131786380Y-107950047D01*
X131786380Y-107711952D01*
X131834000Y-107616714D01*
X131881619Y-107569095D01*
X131976857Y-107521476D01*
X132072095Y-107521476D01*
X132214952Y-107569095D01*
X132786380Y-108140523D01*
X132786380Y-107521476D01*
%TO.C,U1*%
X129159095Y-93940380D02*
X129159095Y-94749904D01*
X129206714Y-94845142D01*
X129254333Y-94892761D01*
X129349571Y-94940380D01*
X129540047Y-94940380D01*
X129635285Y-94892761D01*
X129682904Y-94845142D01*
X129730523Y-94749904D01*
X129730523Y-93940380D01*
X130730523Y-94940380D02*
X130159095Y-94940380D01*
X130444809Y-94940380D02*
X130444809Y-93940380D01*
X130349571Y-94083238D01*
X130254333Y-94178476D01*
X130159095Y-94226095D01*
%TO.C,R3*%
X128230333Y-102560380D02*
X127897000Y-102084190D01*
X127658904Y-102560380D02*
X127658904Y-101560380D01*
X128039857Y-101560380D01*
X128135095Y-101608000D01*
X128182714Y-101655619D01*
X128230333Y-101750857D01*
X128230333Y-101893714D01*
X128182714Y-101988952D01*
X128135095Y-102036571D01*
X128039857Y-102084190D01*
X127658904Y-102084190D01*
X128563666Y-101560380D02*
X129182714Y-101560380D01*
X128849380Y-101941333D01*
X128992238Y-101941333D01*
X129087476Y-101988952D01*
X129135095Y-102036571D01*
X129182714Y-102131809D01*
X129182714Y-102369904D01*
X129135095Y-102465142D01*
X129087476Y-102512761D01*
X128992238Y-102560380D01*
X128706523Y-102560380D01*
X128611285Y-102512761D01*
X128563666Y-102465142D01*
%TO.C,R2*%
X131278333Y-102560380D02*
X130945000Y-102084190D01*
X130706904Y-102560380D02*
X130706904Y-101560380D01*
X131087857Y-101560380D01*
X131183095Y-101608000D01*
X131230714Y-101655619D01*
X131278333Y-101750857D01*
X131278333Y-101893714D01*
X131230714Y-101988952D01*
X131183095Y-102036571D01*
X131087857Y-102084190D01*
X130706904Y-102084190D01*
X131659285Y-101655619D02*
X131706904Y-101608000D01*
X131802142Y-101560380D01*
X132040238Y-101560380D01*
X132135476Y-101608000D01*
X132183095Y-101655619D01*
X132230714Y-101750857D01*
X132230714Y-101846095D01*
X132183095Y-101988952D01*
X131611666Y-102560380D01*
X132230714Y-102560380D01*
%TO.C,J3*%
X139366666Y-91908380D02*
X139366666Y-92622666D01*
X139319047Y-92765523D01*
X139223809Y-92860761D01*
X139080952Y-92908380D01*
X138985714Y-92908380D01*
X139747619Y-91908380D02*
X140366666Y-91908380D01*
X140033333Y-92289333D01*
X140176190Y-92289333D01*
X140271428Y-92336952D01*
X140319047Y-92384571D01*
X140366666Y-92479809D01*
X140366666Y-92717904D01*
X140319047Y-92813142D01*
X140271428Y-92860761D01*
X140176190Y-92908380D01*
X139890476Y-92908380D01*
X139795238Y-92860761D01*
X139747619Y-92813142D01*
%TD*%
M02*
