%TF.GenerationSoftware,KiCad,Pcbnew,(5.1.6)-1*%
%TF.CreationDate,2020-11-21T10:09:12-08:00*%
%TF.ProjectId,SoftTakeover,536f6674-5461-46b6-956f-7665722e6b69,rev?*%
%TF.SameCoordinates,Original*%
%TF.FileFunction,Legend,Bot*%
%TF.FilePolarity,Positive*%
%FSLAX46Y46*%
G04 Gerber Fmt 4.6, Leading zero omitted, Abs format (unit mm)*
G04 Created by KiCad (PCBNEW (5.1.6)-1) date 2020-11-21 10:09:12*
%MOMM*%
%LPD*%
G01*
G04 APERTURE LIST*
%ADD10C,0.120000*%
%ADD11C,0.150000*%
G04 APERTURE END LIST*
D10*
%TO.C,J1*%
X125035000Y-87690000D02*
X125035000Y-85030000D01*
X142875000Y-87690000D02*
X125035000Y-87690000D01*
X142875000Y-85030000D02*
X125035000Y-85030000D01*
X142875000Y-87690000D02*
X142875000Y-85030000D01*
X144145000Y-87690000D02*
X145475000Y-87690000D01*
X145475000Y-87690000D02*
X145475000Y-86360000D01*
%TO.C,J2*%
X125035000Y-120710000D02*
X125035000Y-118050000D01*
X142875000Y-120710000D02*
X125035000Y-120710000D01*
X142875000Y-118050000D02*
X125035000Y-118050000D01*
X142875000Y-120710000D02*
X142875000Y-118050000D01*
X144145000Y-120710000D02*
X145475000Y-120710000D01*
X145475000Y-120710000D02*
X145475000Y-119380000D01*
%TO.C,J1*%
D11*
X143597380Y-89582666D02*
X144311666Y-89582666D01*
X144454523Y-89535047D01*
X144549761Y-89439809D01*
X144597380Y-89296952D01*
X144597380Y-89201714D01*
X144597380Y-90582666D02*
X144597380Y-90011238D01*
X144597380Y-90296952D02*
X143597380Y-90296952D01*
X143740238Y-90201714D01*
X143835476Y-90106476D01*
X143883095Y-90011238D01*
%TO.C,J2*%
X143597380Y-115998666D02*
X144311666Y-115998666D01*
X144454523Y-115951047D01*
X144549761Y-115855809D01*
X144597380Y-115712952D01*
X144597380Y-115617714D01*
X143692619Y-116427238D02*
X143645000Y-116474857D01*
X143597380Y-116570095D01*
X143597380Y-116808190D01*
X143645000Y-116903428D01*
X143692619Y-116951047D01*
X143787857Y-116998666D01*
X143883095Y-116998666D01*
X144025952Y-116951047D01*
X144597380Y-116379619D01*
X144597380Y-116998666D01*
%TD*%
M02*
